<?xml version="1.0" encoding="utf-8" standalone="no"?>
<!DOCTYPE svg PUBLIC "-//W3C//DTD SVG 1.1//EN"
  "http://www.w3.org/Graphics/SVG/1.1/DTD/svg11.dtd">
<svg xmlns:xlink="http://www.w3.org/1999/xlink" width="460.8pt" height="345.6pt" viewBox="0 0 460.8 345.6" xmlns="http://www.w3.org/2000/svg" version="1.1">
 <metadata>
  <rdf:RDF xmlns:dc="http://purl.org/dc/elements/1.1/" xmlns:cc="http://creativecommons.org/ns#" xmlns:rdf="http://www.w3.org/1999/02/22-rdf-syntax-ns#">
   <cc:Work>
    <dc:type rdf:resource="http://purl.org/dc/dcmitype/StillImage"/>
    <dc:date>2023-07-24T22:09:56.029330</dc:date>
    <dc:format>image/svg+xml</dc:format>
    <dc:creator>
     <cc:Agent>
      <dc:title>Matplotlib v3.6.2, https://matplotlib.org/</dc:title>
     </cc:Agent>
    </dc:creator>
   </cc:Work>
  </rdf:RDF>
 </metadata>
 <defs>
  <style type="text/css">*{stroke-linejoin: round; stroke-linecap: butt}</style>
 </defs>
 <g id="figure_1">
  <g id="patch_1">
   <path d="M 0 345.6 
L 460.8 345.6 
L 460.8 0 
L 0 0 
z
" style="fill: #ffffff"/>
  </g>
  <g id="axes_1">
   <g id="patch_2">
    <path d="M 57.6 307.584 
L 414.72 307.584 
L 414.72 41.472 
L 57.6 41.472 
z
" style="fill: #ffffff"/>
   </g>
   <g id="PolyCollection_1">
    <defs>
     <path id="m45bd739312" d="M 73.832727 -67.429877 
L 73.832727 -50.112 
L 75.464157 -51.076354 
L 77.095587 -52.822904 
L 78.727017 -54.867097 
L 80.358447 -58.189283 
L 81.989877 -56.993372 
L 83.621307 -78.34574 
L 85.252736 -62.987365 
L 86.884166 -63.136971 
L 88.515596 -60.560789 
L 90.147026 -83.576224 
L 91.778456 -94.494606 
L 93.409886 -96.287798 
L 95.041316 -116.487505 
L 96.672746 -118.519748 
L 98.304175 -136.943232 
L 99.935605 -155.641588 
L 101.567035 -143.996324 
L 103.198465 -155.956458 
L 104.829895 -141.227534 
L 106.461325 -164.393865 
L 108.092755 -184.542899 
L 109.724185 -180.918603 
L 111.355614 -167.788582 
L 112.987044 -166.83143 
L 114.618474 -191.810541 
L 116.249904 -202.639467 
L 117.881334 -174.476938 
L 119.512764 -191.659662 
L 121.144194 -194.655648 
L 122.775624 -177.672872 
L 124.407053 -167.892733 
L 126.038483 -217.874391 
L 127.669913 -153.987751 
L 129.301343 -203.441555 
L 130.932773 -202.688352 
L 132.564203 -214.230847 
L 134.195633 -224.961907 
L 135.827063 -223.047549 
L 137.458492 -206.605952 
L 139.089922 -228.64358 
L 140.721352 -208.416848 
L 142.352782 -199.22776 
L 143.984212 -211.01124 
L 145.615642 -204.951016 
L 147.247072 -228.345332 
L 148.878502 -226.706815 
L 150.509931 -218.147101 
L 152.141361 -231.822106 
L 153.772791 -204.950795 
L 155.404221 -236.348018 
L 157.035651 -200.450606 
L 158.667081 -229.491027 
L 160.298511 -230.051561 
L 161.929941 -201.4986 
L 163.56137 -222.121809 
L 165.1928 -198.700069 
L 166.82423 -211.969265 
L 168.45566 -205.488102 
L 170.08709 -229.87644 
L 171.71852 -223.371418 
L 173.34995 -221.275538 
L 174.98138 -210.981059 
L 176.61281 -192.645815 
L 178.244239 -230.963777 
L 179.875669 -238.946623 
L 181.507099 -238.567083 
L 183.138529 -237.556009 
L 184.769959 -223.18628 
L 186.401389 -234.110984 
L 188.032819 -212.713844 
L 189.664249 -223.585312 
L 191.295678 -243.772332 
L 192.927108 -240.086348 
L 194.558538 -247.178193 
L 196.189968 -226.329848 
L 197.821398 -228.811224 
L 199.452828 -229.368901 
L 201.084258 -228.848087 
L 202.715688 -226.706708 
L 204.347117 -207.135099 
L 205.978547 -226.463119 
L 207.609977 -204.39365 
L 209.241407 -176.098134 
L 210.872837 -232.231417 
L 212.504267 -232.720666 
L 214.135697 -225.147926 
L 215.767127 -232.751198 
L 217.398556 -199.987488 
L 219.029986 -248.118018 
L 220.661416 -244.856927 
L 222.292846 -232.223836 
L 223.924276 -238.138106 
L 225.555706 -236.090552 
L 227.187136 -246.538409 
L 228.818566 -207.88228 
L 230.449995 -214.470221 
L 232.081425 -223.324151 
L 233.712855 -222.62858 
L 235.344285 -207.334037 
L 236.975715 -222.364316 
L 238.607145 -215.473816 
L 240.238575 -222.570287 
L 241.870005 -239.08521 
L 243.501434 -214.636855 
L 245.132864 -226.934842 
L 246.764294 -234.358112 
L 248.395724 -220.728108 
L 250.027154 -235.922211 
L 251.658584 -208.213863 
L 253.290014 -200.117334 
L 254.921444 -236.782245 
L 256.552873 -233.858147 
L 258.184303 -211.589946 
L 259.815733 -238.341809 
L 261.447163 -223.141333 
L 263.078593 -208.080699 
L 264.710023 -219.763448 
L 266.341453 -235.271171 
L 267.972883 -241.139823 
L 269.604312 -215.214967 
L 271.235742 -213.501081 
L 272.867172 -226.785076 
L 274.498602 -234.114028 
L 276.130032 -240.716342 
L 277.761462 -243.592435 
L 279.392892 -205.066302 
L 281.024322 -218.861995 
L 282.655751 -233.032854 
L 284.287181 -239.032785 
L 285.918611 -228.81123 
L 287.550041 -241.034216 
L 289.181471 -228.82204 
L 290.812901 -234.310948 
L 292.444331 -226.059271 
L 294.075761 -234.845404 
L 295.70719 -232.504567 
L 297.33862 -233.015472 
L 298.97005 -245.423305 
L 300.60148 -200.636808 
L 302.23291 -231.479118 
L 303.86434 -205.474806 
L 305.49577 -207.717162 
L 307.1272 -239.135759 
L 308.75863 -209.546367 
L 310.390059 -239.240178 
L 312.021489 -204.597183 
L 313.652919 -245.487524 
L 315.284349 -235.089719 
L 316.915779 -201.07617 
L 318.547209 -221.118379 
L 320.178639 -228.350387 
L 321.810069 -227.680275 
L 323.441498 -229.20224 
L 325.072928 -237.194985 
L 326.704358 -216.871427 
L 328.335788 -229.915692 
L 329.967218 -250.464356 
L 331.598648 -237.990602 
L 333.230078 -227.551469 
L 334.861508 -235.864145 
L 336.492937 -236.586862 
L 338.124367 -236.234579 
L 339.755797 -231.633005 
L 341.387227 -234.117233 
L 343.018657 -240.98238 
L 344.650087 -244.943071 
L 346.281517 -237.056206 
L 347.912947 -229.017045 
L 349.544376 -239.336341 
L 351.175806 -240.829316 
L 352.807236 -230.120691 
L 354.438666 -228.536226 
L 356.070096 -241.221441 
L 357.701526 -222.37269 
L 359.332956 -232.965066 
L 360.964386 -236.27858 
L 362.595815 -225.741681 
L 364.227245 -208.966715 
L 365.858675 -194.234803 
L 367.490105 -215.528612 
L 369.121535 -201.268364 
L 370.752965 -229.799202 
L 372.384395 -230.393006 
L 374.015825 -223.43525 
L 375.647254 -233.574995 
L 377.278684 -233.272407 
L 378.910114 -243.05819 
L 380.541544 -229.619332 
L 382.172974 -226.970332 
L 383.804404 -234.134585 
L 385.435834 -228.684106 
L 387.067264 -231.483056 
L 388.698693 -236.646242 
L 390.330123 -231.311281 
L 391.961553 -226.491944 
L 393.592983 -209.390809 
L 395.224413 -228.842453 
L 396.855843 -225.824601 
L 398.487273 -219.988064 
L 398.487273 -247.112396 
L 398.487273 -247.112396 
L 396.855843 -249.934669 
L 395.224413 -253.59092 
L 393.592983 -257.1003 
L 391.961553 -249.037495 
L 390.330123 -256.689158 
L 388.698693 -251.441293 
L 387.067264 -251.322481 
L 385.435834 -248.46692 
L 383.804404 -252.122452 
L 382.172974 -250.516125 
L 380.541544 -251.944778 
L 378.910114 -253.24994 
L 377.278684 -252.197922 
L 375.647254 -242.817545 
L 374.015825 -247.71557 
L 372.384395 -254.042351 
L 370.752965 -252.509072 
L 369.121535 -251.118363 
L 367.490105 -250.56965 
L 365.858675 -258.350871 
L 364.227245 -250.695964 
L 362.595815 -257.963642 
L 360.964386 -254.145369 
L 359.332956 -256.969222 
L 357.701526 -251.392222 
L 356.070096 -257.120969 
L 354.438666 -247.00078 
L 352.807236 -257.581981 
L 351.175806 -253.469453 
L 349.544376 -256.078134 
L 347.912947 -258.095573 
L 346.281517 -252.237407 
L 344.650087 -259.459362 
L 343.018657 -255.521462 
L 341.387227 -244.965654 
L 339.755797 -254.836982 
L 338.124367 -253.443594 
L 336.492937 -249.433958 
L 334.861508 -257.404891 
L 333.230078 -243.058477 
L 331.598648 -251.411736 
L 329.967218 -257.738075 
L 328.335788 -259.02388 
L 326.704358 -248.441757 
L 325.072928 -254.55472 
L 323.441498 -252.604566 
L 321.810069 -253.733128 
L 320.178639 -258.921491 
L 318.547209 -249.682913 
L 316.915779 -242.495754 
L 315.284349 -252.351818 
L 313.652919 -255.81411 
L 312.021489 -256.24473 
L 310.390059 -253.630029 
L 308.75863 -248.326654 
L 307.1272 -248.733088 
L 305.49577 -248.549782 
L 303.86434 -239.815134 
L 302.23291 -254.995781 
L 300.60148 -247.695703 
L 298.97005 -251.063553 
L 297.33862 -244.257432 
L 295.70719 -244.422355 
L 294.075761 -253.334952 
L 292.444331 -250.683665 
L 290.812901 -250.945237 
L 289.181471 -253.965348 
L 287.550041 -249.876566 
L 285.918611 -249.088438 
L 284.287181 -256.899238 
L 282.655751 -258.179712 
L 281.024322 -247.798363 
L 279.392892 -249.11313 
L 277.761462 -259.919852 
L 276.130032 -253.490367 
L 274.498602 -254.272822 
L 272.867172 -250.119354 
L 271.235742 -260.552547 
L 269.604312 -257.188401 
L 267.972883 -254.428915 
L 266.341453 -256.940766 
L 264.710023 -246.649204 
L 263.078593 -248.402365 
L 261.447163 -249.388993 
L 259.815733 -254.041839 
L 258.184303 -252.793895 
L 256.552873 -251.174789 
L 254.921444 -253.387348 
L 253.290014 -252.539633 
L 251.658584 -255.953307 
L 250.027154 -251.163213 
L 248.395724 -251.182341 
L 246.764294 -249.904784 
L 245.132864 -254.389936 
L 243.501434 -255.986685 
L 241.870005 -247.407032 
L 240.238575 -244.644387 
L 238.607145 -235.069531 
L 236.975715 -248.593198 
L 235.344285 -248.098662 
L 233.712855 -256.27485 
L 232.081425 -252.351338 
L 230.449995 -252.064422 
L 228.818566 -251.496025 
L 227.187136 -263.914089 
L 225.555706 -258.738938 
L 223.924276 -257.344574 
L 222.292846 -251.664938 
L 220.661416 -258.807481 
L 219.029986 -260.140053 
L 217.398556 -248.302097 
L 215.767127 -253.073808 
L 214.135697 -238.252418 
L 212.504267 -249.709986 
L 210.872837 -257.859466 
L 209.241407 -239.495272 
L 207.609977 -255.279136 
L 205.978547 -259.996051 
L 204.347117 -249.733646 
L 202.715688 -254.013444 
L 201.084258 -247.689609 
L 199.452828 -248.29067 
L 197.821398 -240.479936 
L 196.189968 -246.836058 
L 194.558538 -262.676235 
L 192.927108 -257.93311 
L 191.295678 -254.912252 
L 189.664249 -242.526386 
L 188.032819 -257.801053 
L 186.401389 -256.186946 
L 184.769959 -246.156386 
L 183.138529 -251.206239 
L 181.507099 -252.199517 
L 179.875669 -248.653748 
L 178.244239 -256.703082 
L 176.61281 -240.90022 
L 174.98138 -241.244001 
L 173.34995 -247.43356 
L 171.71852 -246.263829 
L 170.08709 -248.135288 
L 168.45566 -222.391025 
L 166.82423 -236.999205 
L 165.1928 -249.195047 
L 163.56137 -239.519578 
L 161.929941 -241.68862 
L 160.298511 -250.553273 
L 158.667081 -255.015641 
L 157.035651 -247.264084 
L 155.404221 -253.454894 
L 153.772791 -236.023361 
L 152.141361 -241.24196 
L 150.509931 -250.572898 
L 148.878502 -236.431552 
L 147.247072 -247.33494 
L 145.615642 -239.754732 
L 143.984212 -241.797496 
L 142.352782 -251.908681 
L 140.721352 -240.435216 
L 139.089922 -251.771195 
L 137.458492 -249.088641 
L 135.827063 -237.664858 
L 134.195633 -237.872241 
L 132.564203 -237.235942 
L 130.932773 -245.059371 
L 129.301343 -234.233114 
L 127.669913 -245.678179 
L 126.038483 -233.425658 
L 124.407053 -227.737149 
L 122.775624 -217.235338 
L 121.144194 -229.327847 
L 119.512764 -224.8053 
L 117.881334 -206.137713 
L 116.249904 -224.259861 
L 114.618474 -229.771185 
L 112.987044 -226.76777 
L 111.355614 -218.670027 
L 109.724185 -229.587451 
L 108.092755 -205.825723 
L 106.461325 -184.558489 
L 104.829895 -192.786393 
L 103.198465 -196.920698 
L 101.567035 -189.049459 
L 99.935605 -183.024358 
L 98.304175 -165.997616 
L 96.672746 -180.399705 
L 95.041316 -126.951653 
L 93.409886 -134.246824 
L 91.778456 -161.750848 
L 90.147026 -142.939621 
L 88.515596 -108.56903 
L 86.884166 -81.723709 
L 85.252736 -87.636961 
L 83.621307 -97.519524 
L 81.989877 -95.821635 
L 80.358447 -91.250863 
L 78.727017 -78.676398 
L 77.095587 -70.28625 
L 75.464157 -65.485147 
L 73.832727 -67.429877 
z
" style="stroke: #1f77b4; stroke-opacity: 0.2"/>
    </defs>
    <g clip-path="url(#p9e83557149)">
     <use xlink:href="#m45bd739312" x="0" y="345.6" style="fill: #1f77b4; fill-opacity: 0.2; stroke: #1f77b4; stroke-opacity: 0.2"/>
    </g>
   </g>
   <g id="PolyCollection_2">
    <defs>
     <path id="m6df7cfc873" d="M 73.832727 -71.970889 
L 73.832727 -53.216442 
L 75.464157 -51.742822 
L 77.095587 -55.661906 
L 78.727017 -60.119117 
L 80.358447 -58.631592 
L 81.989877 -63.712079 
L 83.621307 -50.519595 
L 85.252736 -66.703789 
L 86.884166 -61.909353 
L 88.515596 -80.900277 
L 90.147026 -73.057934 
L 91.778456 -95.242893 
L 93.409886 -74.097974 
L 95.041316 -115.551552 
L 96.672746 -111.172069 
L 98.304175 -162.289757 
L 99.935605 -100.377499 
L 101.567035 -151.987871 
L 103.198465 -121.616677 
L 104.829895 -124.634382 
L 106.461325 -186.948726 
L 108.092755 -185.059763 
L 109.724185 -171.061804 
L 111.355614 -178.60138 
L 112.987044 -188.660107 
L 114.618474 -178.52437 
L 116.249904 -218.557547 
L 117.881334 -198.929866 
L 119.512764 -224.628384 
L 121.144194 -200.160296 
L 122.775624 -211.438332 
L 124.407053 -199.53968 
L 126.038483 -201.538861 
L 127.669913 -218.014667 
L 129.301343 -185.915391 
L 130.932773 -226.979652 
L 132.564203 -202.969135 
L 134.195633 -217.01124 
L 135.827063 -218.141401 
L 137.458492 -207.355856 
L 139.089922 -212.826177 
L 140.721352 -228.538761 
L 142.352782 -233.91361 
L 143.984212 -215.945559 
L 145.615642 -213.820593 
L 147.247072 -214.359523 
L 148.878502 -206.854411 
L 150.509931 -205.348749 
L 152.141361 -210.381556 
L 153.772791 -211.811616 
L 155.404221 -228.259283 
L 157.035651 -220.754806 
L 158.667081 -242.613123 
L 160.298511 -223.824785 
L 161.929941 -223.844405 
L 163.56137 -232.626412 
L 165.1928 -218.157953 
L 166.82423 -222.105696 
L 168.45566 -233.044919 
L 170.08709 -227.231595 
L 171.71852 -221.101322 
L 173.34995 -224.674702 
L 174.98138 -212.127346 
L 176.61281 -196.331625 
L 178.244239 -197.323277 
L 179.875669 -234.40746 
L 181.507099 -234.35416 
L 183.138529 -196.148209 
L 184.769959 -208.740364 
L 186.401389 -231.285404 
L 188.032819 -194.213984 
L 189.664249 -221.450938 
L 191.295678 -235.903919 
L 192.927108 -238.390354 
L 194.558538 -243.068095 
L 196.189968 -206.877881 
L 197.821398 -252.959465 
L 199.452828 -255.671252 
L 201.084258 -259.313273 
L 202.715688 -263.568924 
L 204.347117 -254.494671 
L 205.978547 -261.606356 
L 207.609977 -261.187257 
L 209.241407 -256.369096 
L 210.872837 -264.039061 
L 212.504267 -264.013805 
L 214.135697 -264.758474 
L 215.767127 -264.523762 
L 217.398556 -270.147706 
L 219.029986 -267.574419 
L 220.661416 -252.042594 
L 222.292846 -255.51848 
L 223.924276 -268.220633 
L 225.555706 -250.692597 
L 227.187136 -270.071009 
L 228.818566 -270.543137 
L 230.449995 -270.496183 
L 232.081425 -269.73977 
L 233.712855 -266.827961 
L 235.344285 -269.238203 
L 236.975715 -270.314688 
L 238.607145 -273.276317 
L 240.238575 -274.147692 
L 241.870005 -273.873424 
L 243.501434 -273.223792 
L 245.132864 -268.901396 
L 246.764294 -272.754742 
L 248.395724 -261.337668 
L 250.027154 -274.731192 
L 251.658584 -274.184196 
L 253.290014 -276.813315 
L 254.921444 -274.609547 
L 256.552873 -272.923322 
L 258.184303 -273.592797 
L 259.815733 -277.394282 
L 261.447163 -273.793366 
L 263.078593 -277.171587 
L 264.710023 -277.12101 
L 266.341453 -272.799562 
L 267.972883 -277.73108 
L 269.604312 -274.027366 
L 271.235742 -278.289846 
L 272.867172 -274.493108 
L 274.498602 -276.015079 
L 276.130032 -279.743583 
L 277.761462 -281.410288 
L 279.392892 -280.359918 
L 281.024322 -275.202315 
L 282.655751 -274.589408 
L 284.287181 -271.823851 
L 285.918611 -275.879756 
L 287.550041 -278.383044 
L 289.181471 -279.968935 
L 290.812901 -277.878892 
L 292.444331 -278.559029 
L 294.075761 -282.986886 
L 295.70719 -272.954904 
L 297.33862 -276.189126 
L 298.97005 -280.265159 
L 300.60148 -281.438649 
L 302.23291 -280.889747 
L 303.86434 -278.96135 
L 305.49577 -278.987141 
L 307.1272 -278.571823 
L 308.75863 -277.591262 
L 310.390059 -273.719922 
L 312.021489 -280.707694 
L 313.652919 -278.111717 
L 315.284349 -278.218804 
L 316.915779 -281.518757 
L 318.547209 -278.411348 
L 320.178639 -281.951881 
L 321.810069 -280.545319 
L 323.441498 -279.766649 
L 325.072928 -277.816858 
L 326.704358 -281.034542 
L 328.335788 -280.934083 
L 329.967218 -284.055467 
L 331.598648 -281.029525 
L 333.230078 -282.748846 
L 334.861508 -282.917374 
L 336.492937 -283.609873 
L 338.124367 -282.190954 
L 339.755797 -284.640186 
L 341.387227 -271.947966 
L 343.018657 -284.843643 
L 344.650087 -285.36977 
L 346.281517 -285.276748 
L 347.912947 -284.864573 
L 349.544376 -286.902678 
L 351.175806 -285.421914 
L 352.807236 -285.664 
L 354.438666 -281.350939 
L 356.070096 -283.801048 
L 357.701526 -285.608181 
L 359.332956 -282.331152 
L 360.964386 -285.068613 
L 362.595815 -286.165563 
L 364.227245 -287.384096 
L 365.858675 -287.15563 
L 367.490105 -284.483844 
L 369.121535 -287.743388 
L 370.752965 -281.498181 
L 372.384395 -285.512064 
L 374.015825 -287.505837 
L 375.647254 -285.858916 
L 377.278684 -287.896625 
L 378.910114 -286.092927 
L 380.541544 -286.825805 
L 382.172974 -287.211321 
L 383.804404 -286.718259 
L 385.435834 -286.600587 
L 387.067264 -282.615437 
L 388.698693 -286.469396 
L 390.330123 -287.492686 
L 391.961553 -282.957247 
L 393.592983 -287.542245 
L 395.224413 -286.718699 
L 396.855843 -284.893394 
L 398.487273 -283.375075 
L 398.487273 -290.413796 
L 398.487273 -290.413796 
L 396.855843 -290.448552 
L 395.224413 -290.959799 
L 393.592983 -290.920942 
L 391.961553 -289.730607 
L 390.330123 -290.506652 
L 388.698693 -290.853796 
L 387.067264 -287.627945 
L 385.435834 -292.032 
L 383.804404 -291.197706 
L 382.172974 -291.843739 
L 380.541544 -289.385909 
L 378.910114 -290.298175 
L 377.278684 -290.635715 
L 375.647254 -291.202663 
L 374.015825 -290.420877 
L 372.384395 -291.386308 
L 370.752965 -290.181171 
L 369.121535 -292.030277 
L 367.490105 -288.355779 
L 365.858675 -291.380196 
L 364.227245 -291.36802 
L 362.595815 -289.798726 
L 360.964386 -290.378419 
L 359.332956 -289.014478 
L 357.701526 -289.824658 
L 356.070096 -289.392994 
L 354.438666 -290.26734 
L 352.807236 -290.080496 
L 351.175806 -287.797555 
L 349.544376 -288.971609 
L 347.912947 -288.231793 
L 346.281517 -290.005065 
L 344.650087 -289.761633 
L 343.018657 -289.934186 
L 341.387227 -289.34261 
L 339.755797 -288.286485 
L 338.124367 -286.966773 
L 336.492937 -286.57537 
L 334.861508 -285.879301 
L 333.230078 -285.87893 
L 331.598648 -284.890241 
L 329.967218 -288.568969 
L 328.335788 -286.058625 
L 326.704358 -285.22024 
L 325.072928 -285.174794 
L 323.441498 -286.277213 
L 321.810069 -285.316239 
L 320.178639 -287.973858 
L 318.547209 -288.835958 
L 316.915779 -286.859483 
L 315.284349 -285.274839 
L 313.652919 -286.368427 
L 312.021489 -285.678818 
L 310.390059 -285.469781 
L 308.75863 -283.609429 
L 307.1272 -285.856708 
L 305.49577 -286.793496 
L 303.86434 -285.089823 
L 302.23291 -285.079606 
L 300.60148 -286.393561 
L 298.97005 -287.436786 
L 297.33862 -286.358721 
L 295.70719 -285.781649 
L 294.075761 -285.358276 
L 292.444331 -282.322844 
L 290.812901 -283.312442 
L 289.181471 -284.415452 
L 287.550041 -284.798642 
L 285.918611 -285.240063 
L 284.287181 -283.344834 
L 282.655751 -282.02843 
L 281.024322 -283.54086 
L 279.392892 -283.506297 
L 277.761462 -282.892912 
L 276.130032 -282.832989 
L 274.498602 -282.605567 
L 272.867172 -280.890157 
L 271.235742 -282.842066 
L 269.604312 -280.761872 
L 267.972883 -280.502693 
L 266.341453 -278.855896 
L 264.710023 -280.532856 
L 263.078593 -280.988182 
L 261.447163 -281.2965 
L 259.815733 -282.109243 
L 258.184303 -280.189097 
L 256.552873 -279.32487 
L 254.921444 -281.116948 
L 253.290014 -278.53483 
L 251.658584 -278.971436 
L 250.027154 -279.740733 
L 248.395724 -275.65045 
L 246.764294 -277.835877 
L 245.132864 -279.349842 
L 243.501434 -281.029265 
L 241.870005 -279.715011 
L 240.238575 -277.940692 
L 238.607145 -277.941967 
L 236.975715 -278.471617 
L 235.344285 -274.872971 
L 233.712855 -274.114868 
L 232.081425 -279.249726 
L 230.449995 -275.962706 
L 228.818566 -275.749347 
L 227.187136 -277.900395 
L 225.555706 -277.545201 
L 223.924276 -277.552856 
L 222.292846 -272.565179 
L 220.661416 -269.574394 
L 219.029986 -275.972233 
L 217.398556 -273.907563 
L 215.767127 -273.575338 
L 214.135697 -271.194778 
L 212.504267 -270.603538 
L 210.872837 -273.028214 
L 209.241407 -275.148739 
L 207.609977 -271.010727 
L 205.978547 -269.408034 
L 204.347117 -269.122849 
L 202.715688 -267.300396 
L 201.084258 -268.268938 
L 199.452828 -262.626151 
L 197.821398 -262.36942 
L 196.189968 -249.508031 
L 194.558538 -253.955529 
L 192.927108 -252.887937 
L 191.295678 -255.043616 
L 189.664249 -234.019681 
L 188.032819 -235.254938 
L 186.401389 -245.310054 
L 184.769959 -242.941524 
L 183.138529 -244.647356 
L 181.507099 -253.93745 
L 179.875669 -249.898946 
L 178.244239 -235.16868 
L 176.61281 -243.933843 
L 174.98138 -250.418001 
L 173.34995 -234.573687 
L 171.71852 -242.521756 
L 170.08709 -234.971548 
L 168.45566 -247.762879 
L 166.82423 -250.374148 
L 165.1928 -241.225227 
L 163.56137 -253.668351 
L 161.929941 -235.508282 
L 160.298511 -237.665517 
L 158.667081 -249.867745 
L 157.035651 -255.427021 
L 155.404221 -249.103918 
L 153.772791 -243.819126 
L 152.141361 -242.917853 
L 150.509931 -228.882818 
L 148.878502 -247.354996 
L 147.247072 -239.07483 
L 145.615642 -238.674257 
L 143.984212 -241.124578 
L 142.352782 -246.441457 
L 140.721352 -246.239892 
L 139.089922 -241.370379 
L 137.458492 -235.373931 
L 135.827063 -246.930322 
L 134.195633 -255.393252 
L 132.564203 -244.330439 
L 130.932773 -240.211074 
L 129.301343 -243.873257 
L 127.669913 -242.465192 
L 126.038483 -245.694367 
L 124.407053 -220.893676 
L 122.775624 -229.788026 
L 121.144194 -229.353053 
L 119.512764 -243.576752 
L 117.881334 -230.602266 
L 116.249904 -246.576366 
L 114.618474 -223.904627 
L 112.987044 -226.175972 
L 111.355614 -209.15472 
L 109.724185 -202.668311 
L 108.092755 -194.008053 
L 106.461325 -222.482754 
L 104.829895 -200.155128 
L 103.198465 -187.768422 
L 101.567035 -192.983066 
L 99.935605 -129.413398 
L 98.304175 -201.222779 
L 96.672746 -176.214323 
L 95.041316 -143.455469 
L 93.409886 -132.997823 
L 91.778456 -116.046405 
L 90.147026 -110.727182 
L 88.515596 -116.729758 
L 86.884166 -93.146078 
L 85.252736 -87.0718 
L 83.621307 -101.500513 
L 81.989877 -85.952563 
L 80.358447 -81.589652 
L 78.727017 -72.649457 
L 77.095587 -69.467302 
L 75.464157 -72.549516 
L 73.832727 -71.970889 
z
" style="stroke: #ff7f0e; stroke-opacity: 0.2"/>
    </defs>
    <g clip-path="url(#p9e83557149)">
     <use xlink:href="#m6df7cfc873" x="0" y="345.6" style="fill: #ff7f0e; fill-opacity: 0.2; stroke: #ff7f0e; stroke-opacity: 0.2"/>
    </g>
   </g>
   <g id="matplotlib.axis_1">
    <g id="xtick_1">
     <g id="line2d_1">
      <defs>
       <path id="mc6069372d1" d="M 0 0 
L 0 3.5 
" style="stroke: #000000; stroke-width: 0.8"/>
      </defs>
      <g>
       <use xlink:href="#mc6069372d1" x="73.832727" y="307.584" style="stroke: #000000; stroke-width: 0.8"/>
      </g>
     </g>
     <g id="text_1">
      <!-- 0 -->
      <g transform="translate(70.651477 322.182437) scale(0.1 -0.1)">
       <defs>
        <path id="DejaVuSans-30" d="M 2034 4250 
Q 1547 4250 1301 3770 
Q 1056 3291 1056 2328 
Q 1056 1369 1301 889 
Q 1547 409 2034 409 
Q 2525 409 2770 889 
Q 3016 1369 3016 2328 
Q 3016 3291 2770 3770 
Q 2525 4250 2034 4250 
z
M 2034 4750 
Q 2819 4750 3233 4129 
Q 3647 3509 3647 2328 
Q 3647 1150 3233 529 
Q 2819 -91 2034 -91 
Q 1250 -91 836 529 
Q 422 1150 422 2328 
Q 422 3509 836 4129 
Q 1250 4750 2034 4750 
z
" transform="scale(0.015625)"/>
       </defs>
       <use xlink:href="#DejaVuSans-30"/>
      </g>
     </g>
    </g>
    <g id="xtick_2">
     <g id="line2d_2">
      <g>
       <use xlink:href="#mc6069372d1" x="114.618474" y="307.584" style="stroke: #000000; stroke-width: 0.8"/>
      </g>
     </g>
     <g id="text_2">
      <!-- 25 -->
      <g transform="translate(108.255974 322.182437) scale(0.1 -0.1)">
       <defs>
        <path id="DejaVuSans-32" d="M 1228 531 
L 3431 531 
L 3431 0 
L 469 0 
L 469 531 
Q 828 903 1448 1529 
Q 2069 2156 2228 2338 
Q 2531 2678 2651 2914 
Q 2772 3150 2772 3378 
Q 2772 3750 2511 3984 
Q 2250 4219 1831 4219 
Q 1534 4219 1204 4116 
Q 875 4013 500 3803 
L 500 4441 
Q 881 4594 1212 4672 
Q 1544 4750 1819 4750 
Q 2544 4750 2975 4387 
Q 3406 4025 3406 3419 
Q 3406 3131 3298 2873 
Q 3191 2616 2906 2266 
Q 2828 2175 2409 1742 
Q 1991 1309 1228 531 
z
" transform="scale(0.015625)"/>
        <path id="DejaVuSans-35" d="M 691 4666 
L 3169 4666 
L 3169 4134 
L 1269 4134 
L 1269 2991 
Q 1406 3038 1543 3061 
Q 1681 3084 1819 3084 
Q 2600 3084 3056 2656 
Q 3513 2228 3513 1497 
Q 3513 744 3044 326 
Q 2575 -91 1722 -91 
Q 1428 -91 1123 -41 
Q 819 9 494 109 
L 494 744 
Q 775 591 1075 516 
Q 1375 441 1709 441 
Q 2250 441 2565 725 
Q 2881 1009 2881 1497 
Q 2881 1984 2565 2268 
Q 2250 2553 1709 2553 
Q 1456 2553 1204 2497 
Q 953 2441 691 2322 
L 691 4666 
z
" transform="scale(0.015625)"/>
       </defs>
       <use xlink:href="#DejaVuSans-32"/>
       <use xlink:href="#DejaVuSans-35" x="63.623047"/>
      </g>
     </g>
    </g>
    <g id="xtick_3">
     <g id="line2d_3">
      <g>
       <use xlink:href="#mc6069372d1" x="155.404221" y="307.584" style="stroke: #000000; stroke-width: 0.8"/>
      </g>
     </g>
     <g id="text_3">
      <!-- 50 -->
      <g transform="translate(149.041721 322.182437) scale(0.1 -0.1)">
       <use xlink:href="#DejaVuSans-35"/>
       <use xlink:href="#DejaVuSans-30" x="63.623047"/>
      </g>
     </g>
    </g>
    <g id="xtick_4">
     <g id="line2d_4">
      <g>
       <use xlink:href="#mc6069372d1" x="196.189968" y="307.584" style="stroke: #000000; stroke-width: 0.8"/>
      </g>
     </g>
     <g id="text_4">
      <!-- 75 -->
      <g transform="translate(189.827468 322.182437) scale(0.1 -0.1)">
       <defs>
        <path id="DejaVuSans-37" d="M 525 4666 
L 3525 4666 
L 3525 4397 
L 1831 0 
L 1172 0 
L 2766 4134 
L 525 4134 
L 525 4666 
z
" transform="scale(0.015625)"/>
       </defs>
       <use xlink:href="#DejaVuSans-37"/>
       <use xlink:href="#DejaVuSans-35" x="63.623047"/>
      </g>
     </g>
    </g>
    <g id="xtick_5">
     <g id="line2d_5">
      <g>
       <use xlink:href="#mc6069372d1" x="236.975715" y="307.584" style="stroke: #000000; stroke-width: 0.8"/>
      </g>
     </g>
     <g id="text_5">
      <!-- 100 -->
      <g transform="translate(227.431965 322.182437) scale(0.1 -0.1)">
       <defs>
        <path id="DejaVuSans-31" d="M 794 531 
L 1825 531 
L 1825 4091 
L 703 3866 
L 703 4441 
L 1819 4666 
L 2450 4666 
L 2450 531 
L 3481 531 
L 3481 0 
L 794 0 
L 794 531 
z
" transform="scale(0.015625)"/>
       </defs>
       <use xlink:href="#DejaVuSans-31"/>
       <use xlink:href="#DejaVuSans-30" x="63.623047"/>
       <use xlink:href="#DejaVuSans-30" x="127.246094"/>
      </g>
     </g>
    </g>
    <g id="xtick_6">
     <g id="line2d_6">
      <g>
       <use xlink:href="#mc6069372d1" x="277.761462" y="307.584" style="stroke: #000000; stroke-width: 0.8"/>
      </g>
     </g>
     <g id="text_6">
      <!-- 125 -->
      <g transform="translate(268.217712 322.182437) scale(0.1 -0.1)">
       <use xlink:href="#DejaVuSans-31"/>
       <use xlink:href="#DejaVuSans-32" x="63.623047"/>
       <use xlink:href="#DejaVuSans-35" x="127.246094"/>
      </g>
     </g>
    </g>
    <g id="xtick_7">
     <g id="line2d_7">
      <g>
       <use xlink:href="#mc6069372d1" x="318.547209" y="307.584" style="stroke: #000000; stroke-width: 0.8"/>
      </g>
     </g>
     <g id="text_7">
      <!-- 150 -->
      <g transform="translate(309.003459 322.182437) scale(0.1 -0.1)">
       <use xlink:href="#DejaVuSans-31"/>
       <use xlink:href="#DejaVuSans-35" x="63.623047"/>
       <use xlink:href="#DejaVuSans-30" x="127.246094"/>
      </g>
     </g>
    </g>
    <g id="xtick_8">
     <g id="line2d_8">
      <g>
       <use xlink:href="#mc6069372d1" x="359.332956" y="307.584" style="stroke: #000000; stroke-width: 0.8"/>
      </g>
     </g>
     <g id="text_8">
      <!-- 175 -->
      <g transform="translate(349.789206 322.182437) scale(0.1 -0.1)">
       <use xlink:href="#DejaVuSans-31"/>
       <use xlink:href="#DejaVuSans-37" x="63.623047"/>
       <use xlink:href="#DejaVuSans-35" x="127.246094"/>
      </g>
     </g>
    </g>
    <g id="xtick_9">
     <g id="line2d_9">
      <g>
       <use xlink:href="#mc6069372d1" x="400.118703" y="307.584" style="stroke: #000000; stroke-width: 0.8"/>
      </g>
     </g>
     <g id="text_9">
      <!-- 200 -->
      <g transform="translate(390.574953 322.182437) scale(0.1 -0.1)">
       <use xlink:href="#DejaVuSans-32"/>
       <use xlink:href="#DejaVuSans-30" x="63.623047"/>
       <use xlink:href="#DejaVuSans-30" x="127.246094"/>
      </g>
     </g>
    </g>
    <g id="text_10">
     <!-- Communication Rounds -->
     <g transform="translate(176.737344 335.860562) scale(0.1 -0.1)">
      <defs>
       <path id="DejaVuSans-43" d="M 4122 4306 
L 4122 3641 
Q 3803 3938 3442 4084 
Q 3081 4231 2675 4231 
Q 1875 4231 1450 3742 
Q 1025 3253 1025 2328 
Q 1025 1406 1450 917 
Q 1875 428 2675 428 
Q 3081 428 3442 575 
Q 3803 722 4122 1019 
L 4122 359 
Q 3791 134 3420 21 
Q 3050 -91 2638 -91 
Q 1578 -91 968 557 
Q 359 1206 359 2328 
Q 359 3453 968 4101 
Q 1578 4750 2638 4750 
Q 3056 4750 3426 4639 
Q 3797 4528 4122 4306 
z
" transform="scale(0.015625)"/>
       <path id="DejaVuSans-6f" d="M 1959 3097 
Q 1497 3097 1228 2736 
Q 959 2375 959 1747 
Q 959 1119 1226 758 
Q 1494 397 1959 397 
Q 2419 397 2687 759 
Q 2956 1122 2956 1747 
Q 2956 2369 2687 2733 
Q 2419 3097 1959 3097 
z
M 1959 3584 
Q 2709 3584 3137 3096 
Q 3566 2609 3566 1747 
Q 3566 888 3137 398 
Q 2709 -91 1959 -91 
Q 1206 -91 779 398 
Q 353 888 353 1747 
Q 353 2609 779 3096 
Q 1206 3584 1959 3584 
z
" transform="scale(0.015625)"/>
       <path id="DejaVuSans-6d" d="M 3328 2828 
Q 3544 3216 3844 3400 
Q 4144 3584 4550 3584 
Q 5097 3584 5394 3201 
Q 5691 2819 5691 2113 
L 5691 0 
L 5113 0 
L 5113 2094 
Q 5113 2597 4934 2840 
Q 4756 3084 4391 3084 
Q 3944 3084 3684 2787 
Q 3425 2491 3425 1978 
L 3425 0 
L 2847 0 
L 2847 2094 
Q 2847 2600 2669 2842 
Q 2491 3084 2119 3084 
Q 1678 3084 1418 2786 
Q 1159 2488 1159 1978 
L 1159 0 
L 581 0 
L 581 3500 
L 1159 3500 
L 1159 2956 
Q 1356 3278 1631 3431 
Q 1906 3584 2284 3584 
Q 2666 3584 2933 3390 
Q 3200 3197 3328 2828 
z
" transform="scale(0.015625)"/>
       <path id="DejaVuSans-75" d="M 544 1381 
L 544 3500 
L 1119 3500 
L 1119 1403 
Q 1119 906 1312 657 
Q 1506 409 1894 409 
Q 2359 409 2629 706 
Q 2900 1003 2900 1516 
L 2900 3500 
L 3475 3500 
L 3475 0 
L 2900 0 
L 2900 538 
Q 2691 219 2414 64 
Q 2138 -91 1772 -91 
Q 1169 -91 856 284 
Q 544 659 544 1381 
z
M 1991 3584 
L 1991 3584 
z
" transform="scale(0.015625)"/>
       <path id="DejaVuSans-6e" d="M 3513 2113 
L 3513 0 
L 2938 0 
L 2938 2094 
Q 2938 2591 2744 2837 
Q 2550 3084 2163 3084 
Q 1697 3084 1428 2787 
Q 1159 2491 1159 1978 
L 1159 0 
L 581 0 
L 581 3500 
L 1159 3500 
L 1159 2956 
Q 1366 3272 1645 3428 
Q 1925 3584 2291 3584 
Q 2894 3584 3203 3211 
Q 3513 2838 3513 2113 
z
" transform="scale(0.015625)"/>
       <path id="DejaVuSans-69" d="M 603 3500 
L 1178 3500 
L 1178 0 
L 603 0 
L 603 3500 
z
M 603 4863 
L 1178 4863 
L 1178 4134 
L 603 4134 
L 603 4863 
z
" transform="scale(0.015625)"/>
       <path id="DejaVuSans-63" d="M 3122 3366 
L 3122 2828 
Q 2878 2963 2633 3030 
Q 2388 3097 2138 3097 
Q 1578 3097 1268 2742 
Q 959 2388 959 1747 
Q 959 1106 1268 751 
Q 1578 397 2138 397 
Q 2388 397 2633 464 
Q 2878 531 3122 666 
L 3122 134 
Q 2881 22 2623 -34 
Q 2366 -91 2075 -91 
Q 1284 -91 818 406 
Q 353 903 353 1747 
Q 353 2603 823 3093 
Q 1294 3584 2113 3584 
Q 2378 3584 2631 3529 
Q 2884 3475 3122 3366 
z
" transform="scale(0.015625)"/>
       <path id="DejaVuSans-61" d="M 2194 1759 
Q 1497 1759 1228 1600 
Q 959 1441 959 1056 
Q 959 750 1161 570 
Q 1363 391 1709 391 
Q 2188 391 2477 730 
Q 2766 1069 2766 1631 
L 2766 1759 
L 2194 1759 
z
M 3341 1997 
L 3341 0 
L 2766 0 
L 2766 531 
Q 2569 213 2275 61 
Q 1981 -91 1556 -91 
Q 1019 -91 701 211 
Q 384 513 384 1019 
Q 384 1609 779 1909 
Q 1175 2209 1959 2209 
L 2766 2209 
L 2766 2266 
Q 2766 2663 2505 2880 
Q 2244 3097 1772 3097 
Q 1472 3097 1187 3025 
Q 903 2953 641 2809 
L 641 3341 
Q 956 3463 1253 3523 
Q 1550 3584 1831 3584 
Q 2591 3584 2966 3190 
Q 3341 2797 3341 1997 
z
" transform="scale(0.015625)"/>
       <path id="DejaVuSans-74" d="M 1172 4494 
L 1172 3500 
L 2356 3500 
L 2356 3053 
L 1172 3053 
L 1172 1153 
Q 1172 725 1289 603 
Q 1406 481 1766 481 
L 2356 481 
L 2356 0 
L 1766 0 
Q 1100 0 847 248 
Q 594 497 594 1153 
L 594 3053 
L 172 3053 
L 172 3500 
L 594 3500 
L 594 4494 
L 1172 4494 
z
" transform="scale(0.015625)"/>
       <path id="DejaVuSans-20" transform="scale(0.015625)"/>
       <path id="DejaVuSans-52" d="M 2841 2188 
Q 3044 2119 3236 1894 
Q 3428 1669 3622 1275 
L 4263 0 
L 3584 0 
L 2988 1197 
Q 2756 1666 2539 1819 
Q 2322 1972 1947 1972 
L 1259 1972 
L 1259 0 
L 628 0 
L 628 4666 
L 2053 4666 
Q 2853 4666 3247 4331 
Q 3641 3997 3641 3322 
Q 3641 2881 3436 2590 
Q 3231 2300 2841 2188 
z
M 1259 4147 
L 1259 2491 
L 2053 2491 
Q 2509 2491 2742 2702 
Q 2975 2913 2975 3322 
Q 2975 3731 2742 3939 
Q 2509 4147 2053 4147 
L 1259 4147 
z
" transform="scale(0.015625)"/>
       <path id="DejaVuSans-64" d="M 2906 2969 
L 2906 4863 
L 3481 4863 
L 3481 0 
L 2906 0 
L 2906 525 
Q 2725 213 2448 61 
Q 2172 -91 1784 -91 
Q 1150 -91 751 415 
Q 353 922 353 1747 
Q 353 2572 751 3078 
Q 1150 3584 1784 3584 
Q 2172 3584 2448 3432 
Q 2725 3281 2906 2969 
z
M 947 1747 
Q 947 1113 1208 752 
Q 1469 391 1925 391 
Q 2381 391 2643 752 
Q 2906 1113 2906 1747 
Q 2906 2381 2643 2742 
Q 2381 3103 1925 3103 
Q 1469 3103 1208 2742 
Q 947 2381 947 1747 
z
" transform="scale(0.015625)"/>
       <path id="DejaVuSans-73" d="M 2834 3397 
L 2834 2853 
Q 2591 2978 2328 3040 
Q 2066 3103 1784 3103 
Q 1356 3103 1142 2972 
Q 928 2841 928 2578 
Q 928 2378 1081 2264 
Q 1234 2150 1697 2047 
L 1894 2003 
Q 2506 1872 2764 1633 
Q 3022 1394 3022 966 
Q 3022 478 2636 193 
Q 2250 -91 1575 -91 
Q 1294 -91 989 -36 
Q 684 19 347 128 
L 347 722 
Q 666 556 975 473 
Q 1284 391 1588 391 
Q 1994 391 2212 530 
Q 2431 669 2431 922 
Q 2431 1156 2273 1281 
Q 2116 1406 1581 1522 
L 1381 1569 
Q 847 1681 609 1914 
Q 372 2147 372 2553 
Q 372 3047 722 3315 
Q 1072 3584 1716 3584 
Q 2034 3584 2315 3537 
Q 2597 3491 2834 3397 
z
" transform="scale(0.015625)"/>
      </defs>
      <use xlink:href="#DejaVuSans-43"/>
      <use xlink:href="#DejaVuSans-6f" x="69.824219"/>
      <use xlink:href="#DejaVuSans-6d" x="131.005859"/>
      <use xlink:href="#DejaVuSans-6d" x="228.417969"/>
      <use xlink:href="#DejaVuSans-75" x="325.830078"/>
      <use xlink:href="#DejaVuSans-6e" x="389.208984"/>
      <use xlink:href="#DejaVuSans-69" x="452.587891"/>
      <use xlink:href="#DejaVuSans-63" x="480.371094"/>
      <use xlink:href="#DejaVuSans-61" x="535.351562"/>
      <use xlink:href="#DejaVuSans-74" x="596.630859"/>
      <use xlink:href="#DejaVuSans-69" x="635.839844"/>
      <use xlink:href="#DejaVuSans-6f" x="663.623047"/>
      <use xlink:href="#DejaVuSans-6e" x="724.804688"/>
      <use xlink:href="#DejaVuSans-20" x="788.183594"/>
      <use xlink:href="#DejaVuSans-52" x="819.970703"/>
      <use xlink:href="#DejaVuSans-6f" x="884.953125"/>
      <use xlink:href="#DejaVuSans-75" x="946.134766"/>
      <use xlink:href="#DejaVuSans-6e" x="1009.513672"/>
      <use xlink:href="#DejaVuSans-64" x="1072.892578"/>
      <use xlink:href="#DejaVuSans-73" x="1136.369141"/>
     </g>
    </g>
   </g>
   <g id="matplotlib.axis_2">
    <g id="ytick_1">
     <g id="line2d_10">
      <defs>
       <path id="mceff020748" d="M 0 0 
L -3.5 0 
" style="stroke: #000000; stroke-width: 0.8"/>
      </defs>
      <g>
       <use xlink:href="#mceff020748" x="57.6" y="294.334208" style="stroke: #000000; stroke-width: 0.8"/>
      </g>
     </g>
     <g id="text_11">
      <!-- 0.1 -->
      <g transform="translate(34.696875 298.133426) scale(0.1 -0.1)">
       <defs>
        <path id="DejaVuSans-2e" d="M 684 794 
L 1344 794 
L 1344 0 
L 684 0 
L 684 794 
z
" transform="scale(0.015625)"/>
       </defs>
       <use xlink:href="#DejaVuSans-30"/>
       <use xlink:href="#DejaVuSans-2e" x="63.623047"/>
       <use xlink:href="#DejaVuSans-31" x="95.410156"/>
      </g>
     </g>
    </g>
    <g id="ytick_2">
     <g id="line2d_11">
      <g>
       <use xlink:href="#mceff020748" x="57.6" y="262.893929" style="stroke: #000000; stroke-width: 0.8"/>
      </g>
     </g>
     <g id="text_12">
      <!-- 0.2 -->
      <g transform="translate(34.696875 266.693148) scale(0.1 -0.1)">
       <use xlink:href="#DejaVuSans-30"/>
       <use xlink:href="#DejaVuSans-2e" x="63.623047"/>
       <use xlink:href="#DejaVuSans-32" x="95.410156"/>
      </g>
     </g>
    </g>
    <g id="ytick_3">
     <g id="line2d_12">
      <g>
       <use xlink:href="#mceff020748" x="57.6" y="231.453651" style="stroke: #000000; stroke-width: 0.8"/>
      </g>
     </g>
     <g id="text_13">
      <!-- 0.3 -->
      <g transform="translate(34.696875 235.25287) scale(0.1 -0.1)">
       <defs>
        <path id="DejaVuSans-33" d="M 2597 2516 
Q 3050 2419 3304 2112 
Q 3559 1806 3559 1356 
Q 3559 666 3084 287 
Q 2609 -91 1734 -91 
Q 1441 -91 1130 -33 
Q 819 25 488 141 
L 488 750 
Q 750 597 1062 519 
Q 1375 441 1716 441 
Q 2309 441 2620 675 
Q 2931 909 2931 1356 
Q 2931 1769 2642 2001 
Q 2353 2234 1838 2234 
L 1294 2234 
L 1294 2753 
L 1863 2753 
Q 2328 2753 2575 2939 
Q 2822 3125 2822 3475 
Q 2822 3834 2567 4026 
Q 2313 4219 1838 4219 
Q 1578 4219 1281 4162 
Q 984 4106 628 3988 
L 628 4550 
Q 988 4650 1302 4700 
Q 1616 4750 1894 4750 
Q 2613 4750 3031 4423 
Q 3450 4097 3450 3541 
Q 3450 3153 3228 2886 
Q 3006 2619 2597 2516 
z
" transform="scale(0.015625)"/>
       </defs>
       <use xlink:href="#DejaVuSans-30"/>
       <use xlink:href="#DejaVuSans-2e" x="63.623047"/>
       <use xlink:href="#DejaVuSans-33" x="95.410156"/>
      </g>
     </g>
    </g>
    <g id="ytick_4">
     <g id="line2d_13">
      <g>
       <use xlink:href="#mceff020748" x="57.6" y="200.013373" style="stroke: #000000; stroke-width: 0.8"/>
      </g>
     </g>
     <g id="text_14">
      <!-- 0.4 -->
      <g transform="translate(34.696875 203.812591) scale(0.1 -0.1)">
       <defs>
        <path id="DejaVuSans-34" d="M 2419 4116 
L 825 1625 
L 2419 1625 
L 2419 4116 
z
M 2253 4666 
L 3047 4666 
L 3047 1625 
L 3713 1625 
L 3713 1100 
L 3047 1100 
L 3047 0 
L 2419 0 
L 2419 1100 
L 313 1100 
L 313 1709 
L 2253 4666 
z
" transform="scale(0.015625)"/>
       </defs>
       <use xlink:href="#DejaVuSans-30"/>
       <use xlink:href="#DejaVuSans-2e" x="63.623047"/>
       <use xlink:href="#DejaVuSans-34" x="95.410156"/>
      </g>
     </g>
    </g>
    <g id="ytick_5">
     <g id="line2d_14">
      <g>
       <use xlink:href="#mceff020748" x="57.6" y="168.573094" style="stroke: #000000; stroke-width: 0.8"/>
      </g>
     </g>
     <g id="text_15">
      <!-- 0.5 -->
      <g transform="translate(34.696875 172.372313) scale(0.1 -0.1)">
       <use xlink:href="#DejaVuSans-30"/>
       <use xlink:href="#DejaVuSans-2e" x="63.623047"/>
       <use xlink:href="#DejaVuSans-35" x="95.410156"/>
      </g>
     </g>
    </g>
    <g id="ytick_6">
     <g id="line2d_15">
      <g>
       <use xlink:href="#mceff020748" x="57.6" y="137.132816" style="stroke: #000000; stroke-width: 0.8"/>
      </g>
     </g>
     <g id="text_16">
      <!-- 0.6 -->
      <g transform="translate(34.696875 140.932035) scale(0.1 -0.1)">
       <defs>
        <path id="DejaVuSans-36" d="M 2113 2584 
Q 1688 2584 1439 2293 
Q 1191 2003 1191 1497 
Q 1191 994 1439 701 
Q 1688 409 2113 409 
Q 2538 409 2786 701 
Q 3034 994 3034 1497 
Q 3034 2003 2786 2293 
Q 2538 2584 2113 2584 
z
M 3366 4563 
L 3366 3988 
Q 3128 4100 2886 4159 
Q 2644 4219 2406 4219 
Q 1781 4219 1451 3797 
Q 1122 3375 1075 2522 
Q 1259 2794 1537 2939 
Q 1816 3084 2150 3084 
Q 2853 3084 3261 2657 
Q 3669 2231 3669 1497 
Q 3669 778 3244 343 
Q 2819 -91 2113 -91 
Q 1303 -91 875 529 
Q 447 1150 447 2328 
Q 447 3434 972 4092 
Q 1497 4750 2381 4750 
Q 2619 4750 2861 4703 
Q 3103 4656 3366 4563 
z
" transform="scale(0.015625)"/>
       </defs>
       <use xlink:href="#DejaVuSans-30"/>
       <use xlink:href="#DejaVuSans-2e" x="63.623047"/>
       <use xlink:href="#DejaVuSans-36" x="95.410156"/>
      </g>
     </g>
    </g>
    <g id="ytick_7">
     <g id="line2d_16">
      <g>
       <use xlink:href="#mceff020748" x="57.6" y="105.692537" style="stroke: #000000; stroke-width: 0.8"/>
      </g>
     </g>
     <g id="text_17">
      <!-- 0.7 -->
      <g transform="translate(34.696875 109.491756) scale(0.1 -0.1)">
       <use xlink:href="#DejaVuSans-30"/>
       <use xlink:href="#DejaVuSans-2e" x="63.623047"/>
       <use xlink:href="#DejaVuSans-37" x="95.410156"/>
      </g>
     </g>
    </g>
    <g id="ytick_8">
     <g id="line2d_17">
      <g>
       <use xlink:href="#mceff020748" x="57.6" y="74.252259" style="stroke: #000000; stroke-width: 0.8"/>
      </g>
     </g>
     <g id="text_18">
      <!-- 0.8 -->
      <g transform="translate(34.696875 78.051478) scale(0.1 -0.1)">
       <defs>
        <path id="DejaVuSans-38" d="M 2034 2216 
Q 1584 2216 1326 1975 
Q 1069 1734 1069 1313 
Q 1069 891 1326 650 
Q 1584 409 2034 409 
Q 2484 409 2743 651 
Q 3003 894 3003 1313 
Q 3003 1734 2745 1975 
Q 2488 2216 2034 2216 
z
M 1403 2484 
Q 997 2584 770 2862 
Q 544 3141 544 3541 
Q 544 4100 942 4425 
Q 1341 4750 2034 4750 
Q 2731 4750 3128 4425 
Q 3525 4100 3525 3541 
Q 3525 3141 3298 2862 
Q 3072 2584 2669 2484 
Q 3125 2378 3379 2068 
Q 3634 1759 3634 1313 
Q 3634 634 3220 271 
Q 2806 -91 2034 -91 
Q 1263 -91 848 271 
Q 434 634 434 1313 
Q 434 1759 690 2068 
Q 947 2378 1403 2484 
z
M 1172 3481 
Q 1172 3119 1398 2916 
Q 1625 2713 2034 2713 
Q 2441 2713 2670 2916 
Q 2900 3119 2900 3481 
Q 2900 3844 2670 4047 
Q 2441 4250 2034 4250 
Q 1625 4250 1398 4047 
Q 1172 3844 1172 3481 
z
" transform="scale(0.015625)"/>
       </defs>
       <use xlink:href="#DejaVuSans-30"/>
       <use xlink:href="#DejaVuSans-2e" x="63.623047"/>
       <use xlink:href="#DejaVuSans-38" x="95.410156"/>
      </g>
     </g>
    </g>
    <g id="ytick_9">
     <g id="line2d_18">
      <g>
       <use xlink:href="#mceff020748" x="57.6" y="42.811981" style="stroke: #000000; stroke-width: 0.8"/>
      </g>
     </g>
     <g id="text_19">
      <!-- 0.9 -->
      <g transform="translate(34.696875 46.611199) scale(0.1 -0.1)">
       <defs>
        <path id="DejaVuSans-39" d="M 703 97 
L 703 672 
Q 941 559 1184 500 
Q 1428 441 1663 441 
Q 2288 441 2617 861 
Q 2947 1281 2994 2138 
Q 2813 1869 2534 1725 
Q 2256 1581 1919 1581 
Q 1219 1581 811 2004 
Q 403 2428 403 3163 
Q 403 3881 828 4315 
Q 1253 4750 1959 4750 
Q 2769 4750 3195 4129 
Q 3622 3509 3622 2328 
Q 3622 1225 3098 567 
Q 2575 -91 1691 -91 
Q 1453 -91 1209 -44 
Q 966 3 703 97 
z
M 1959 2075 
Q 2384 2075 2632 2365 
Q 2881 2656 2881 3163 
Q 2881 3666 2632 3958 
Q 2384 4250 1959 4250 
Q 1534 4250 1286 3958 
Q 1038 3666 1038 3163 
Q 1038 2656 1286 2365 
Q 1534 2075 1959 2075 
z
" transform="scale(0.015625)"/>
       </defs>
       <use xlink:href="#DejaVuSans-30"/>
       <use xlink:href="#DejaVuSans-2e" x="63.623047"/>
       <use xlink:href="#DejaVuSans-39" x="95.410156"/>
      </g>
     </g>
    </g>
    <g id="text_20">
     <!-- Training Accuracy -->
     <g transform="translate(28.617187 218.670969) rotate(-90) scale(0.1 -0.1)">
      <defs>
       <path id="DejaVuSans-54" d="M -19 4666 
L 3928 4666 
L 3928 4134 
L 2272 4134 
L 2272 0 
L 1638 0 
L 1638 4134 
L -19 4134 
L -19 4666 
z
" transform="scale(0.015625)"/>
       <path id="DejaVuSans-72" d="M 2631 2963 
Q 2534 3019 2420 3045 
Q 2306 3072 2169 3072 
Q 1681 3072 1420 2755 
Q 1159 2438 1159 1844 
L 1159 0 
L 581 0 
L 581 3500 
L 1159 3500 
L 1159 2956 
Q 1341 3275 1631 3429 
Q 1922 3584 2338 3584 
Q 2397 3584 2469 3576 
Q 2541 3569 2628 3553 
L 2631 2963 
z
" transform="scale(0.015625)"/>
       <path id="DejaVuSans-67" d="M 2906 1791 
Q 2906 2416 2648 2759 
Q 2391 3103 1925 3103 
Q 1463 3103 1205 2759 
Q 947 2416 947 1791 
Q 947 1169 1205 825 
Q 1463 481 1925 481 
Q 2391 481 2648 825 
Q 2906 1169 2906 1791 
z
M 3481 434 
Q 3481 -459 3084 -895 
Q 2688 -1331 1869 -1331 
Q 1566 -1331 1297 -1286 
Q 1028 -1241 775 -1147 
L 775 -588 
Q 1028 -725 1275 -790 
Q 1522 -856 1778 -856 
Q 2344 -856 2625 -561 
Q 2906 -266 2906 331 
L 2906 616 
Q 2728 306 2450 153 
Q 2172 0 1784 0 
Q 1141 0 747 490 
Q 353 981 353 1791 
Q 353 2603 747 3093 
Q 1141 3584 1784 3584 
Q 2172 3584 2450 3431 
Q 2728 3278 2906 2969 
L 2906 3500 
L 3481 3500 
L 3481 434 
z
" transform="scale(0.015625)"/>
       <path id="DejaVuSans-41" d="M 2188 4044 
L 1331 1722 
L 3047 1722 
L 2188 4044 
z
M 1831 4666 
L 2547 4666 
L 4325 0 
L 3669 0 
L 3244 1197 
L 1141 1197 
L 716 0 
L 50 0 
L 1831 4666 
z
" transform="scale(0.015625)"/>
       <path id="DejaVuSans-79" d="M 2059 -325 
Q 1816 -950 1584 -1140 
Q 1353 -1331 966 -1331 
L 506 -1331 
L 506 -850 
L 844 -850 
Q 1081 -850 1212 -737 
Q 1344 -625 1503 -206 
L 1606 56 
L 191 3500 
L 800 3500 
L 1894 763 
L 2988 3500 
L 3597 3500 
L 2059 -325 
z
" transform="scale(0.015625)"/>
      </defs>
      <use xlink:href="#DejaVuSans-54"/>
      <use xlink:href="#DejaVuSans-72" x="46.333984"/>
      <use xlink:href="#DejaVuSans-61" x="87.447266"/>
      <use xlink:href="#DejaVuSans-69" x="148.726562"/>
      <use xlink:href="#DejaVuSans-6e" x="176.509766"/>
      <use xlink:href="#DejaVuSans-69" x="239.888672"/>
      <use xlink:href="#DejaVuSans-6e" x="267.671875"/>
      <use xlink:href="#DejaVuSans-67" x="331.050781"/>
      <use xlink:href="#DejaVuSans-20" x="394.527344"/>
      <use xlink:href="#DejaVuSans-41" x="426.314453"/>
      <use xlink:href="#DejaVuSans-63" x="492.972656"/>
      <use xlink:href="#DejaVuSans-63" x="547.953125"/>
      <use xlink:href="#DejaVuSans-75" x="602.933594"/>
      <use xlink:href="#DejaVuSans-72" x="666.3125"/>
      <use xlink:href="#DejaVuSans-61" x="707.425781"/>
      <use xlink:href="#DejaVuSans-63" x="768.705078"/>
      <use xlink:href="#DejaVuSans-79" x="823.685547"/>
     </g>
    </g>
   </g>
   <g id="line2d_19">
    <path d="M 73.832727 288.078603 
L 75.464157 288.678628 
L 78.727017 279.236869 
L 80.358447 270.849829 
L 81.989877 270.890557 
L 83.621307 258.531551 
L 85.252736 270.458738 
L 86.884166 273.232465 
L 88.515596 266.971165 
L 90.147026 232.010379 
L 91.778456 220.543705 
L 93.409886 231.991162 
L 95.041316 224.22204 
L 96.672746 196.175397 
L 98.304175 191.870447 
L 99.935605 174.949771 
L 101.567035 179.060414 
L 103.198465 167.838401 
L 104.829895 175.481889 
L 106.461325 171.859209 
L 108.092755 149.314628 
L 109.724185 141.853202 
L 111.355614 149.840118 
L 112.987044 148.135145 
L 114.618474 134.693515 
L 116.249904 131.48085 
L 117.881334 154.052699 
L 119.512764 137.367519 
L 121.144194 132.706859 
L 122.775624 147.983094 
L 124.407053 141.500192 
L 126.038483 119.949975 
L 127.669913 139.076823 
L 129.301343 126.76709 
L 130.932773 115.375619 
L 132.564203 120.242235 
L 134.195633 114.096796 
L 135.827063 116.142454 
L 137.458492 117.833153 
L 139.089922 104.726117 
L 140.721352 121.317919 
L 142.352782 120.031779 
L 143.984212 119.195632 
L 145.615642 125.3344 
L 147.247072 106.611327 
L 148.878502 114.697504 
L 150.509931 111.152079 
L 152.141361 109.116808 
L 153.772791 122.324705 
L 155.404221 101.050294 
L 157.035651 116.871003 
L 158.667081 101.19338 
L 160.298511 106.569526 
L 161.929941 122.131562 
L 163.56137 115.70551 
L 165.1928 121.652442 
L 166.82423 120.495616 
L 168.45566 131.283096 
L 170.08709 106.016792 
L 171.71852 110.770453 
L 173.34995 109.124924 
L 174.98138 118.565271 
L 176.61281 124.328695 
L 178.244239 101.558261 
L 179.875669 101.799814 
L 181.507099 99.740645 
L 183.138529 101.643627 
L 184.769959 111.126051 
L 186.401389 100.622579 
L 188.032819 107.044336 
L 189.664249 112.085752 
L 191.295678 95.16357 
L 192.927108 96.969347 
L 194.558538 89.721443 
L 196.189968 109.017047 
L 197.821398 110.832133 
L 199.452828 106.495381 
L 201.084258 106.563995 
L 202.715688 105.239924 
L 204.347117 114.76048 
L 205.978547 100.626011 
L 207.609977 109.702898 
L 209.241407 136.75945 
L 210.872837 99.847597 
L 212.504267 104.506866 
L 214.135697 113.62242 
L 215.767127 102.756864 
L 217.398556 119.695304 
L 219.029986 91.617434 
L 220.661416 93.204692 
L 222.292846 104.085318 
L 223.924276 98.037559 
L 225.555706 97.354191 
L 227.187136 90.126987 
L 228.818566 111.76243 
L 230.449995 106.850613 
L 232.081425 108.375895 
L 233.712855 104.996265 
L 235.344285 115.382384 
L 236.975715 106.875485 
L 238.607145 119.073315 
L 240.238575 111.992663 
L 241.870005 102.353879 
L 243.501434 105.635764 
L 245.132864 103.035947 
L 246.764294 102.095465 
L 248.395724 109.488446 
L 250.027154 101.960433 
L 251.658584 110.085031 
L 253.290014 116.323684 
L 254.921444 100.839144 
L 256.552873 103.554866 
L 258.184303 111.09809 
L 259.815733 98.623014 
L 261.447163 111.361532 
L 263.078593 116.263756 
L 264.710023 109.257837 
L 266.341453 100.512298 
L 267.972883 97.675371 
L 269.604312 107.188141 
L 271.235742 108.573186 
L 272.867172 106.908925 
L 274.498602 101.406575 
L 276.130032 98.941555 
L 277.761462 93.8271 
L 279.392892 113.022148 
L 281.024322 110.154854 
L 282.655751 99.993717 
L 284.287181 98.196398 
L 285.918611 105.858552 
L 287.550041 100.10902 
L 289.181471 104.206306 
L 290.812901 102.971907 
L 292.444331 106.55048 
L 294.075761 101.509822 
L 295.70719 107.655531 
L 297.33862 106.718846 
L 298.97005 96.981746 
L 300.60148 119.174141 
L 302.23291 101.800378 
L 303.86434 122.95503 
L 305.49577 115.542862 
L 307.1272 101.665577 
L 308.75863 116.66349 
L 310.390059 98.319644 
L 312.021489 109.686596 
L 313.652919 94.949183 
L 315.284349 101.173057 
L 316.915779 122.566403 
L 318.547209 110.199354 
L 320.178639 100.185881 
L 321.810069 105.490931 
L 323.441498 104.963264 
L 325.072928 99.725147 
L 326.704358 112.943408 
L 328.335788 98.797904 
L 329.967218 91.389175 
L 333.230078 110.355202 
L 334.861508 98.737983 
L 336.492937 102.588999 
L 338.124367 99.573788 
L 339.755797 102.913466 
L 341.387227 105.289149 
L 343.018657 96.122698 
L 344.650087 92.188018 
L 346.281517 101.952582 
L 347.912947 100.759778 
L 349.544376 97.039751 
L 351.175806 98.986457 
L 352.807236 101.493086 
L 354.438666 108.065395 
L 356.070096 97.811803 
L 357.701526 107.263308 
L 359.332956 100.333044 
L 360.964386 100.388026 
L 362.595815 103.343171 
L 364.227245 112.992922 
L 365.858675 111.555963 
L 367.490105 111.874148 
L 369.121535 118.019433 
L 370.752965 104.445863 
L 372.384395 102.638344 
L 374.015825 108.982376 
L 375.647254 107.867048 
L 377.278684 102.785045 
L 378.910114 98.478575 
L 380.541544 103.135266 
L 382.172974 108.382486 
L 383.804404 102.090581 
L 385.435834 107.017533 
L 388.698693 101.066251 
L 390.330123 101.912636 
L 391.961553 107.658138 
L 393.592983 109.760369 
L 395.224413 103.129483 
L 396.855843 108.213966 
L 398.487273 110.702037 
L 398.487273 110.702037 
" clip-path="url(#p9e83557149)" style="fill: none; stroke: #1f77b4; stroke-width: 1.5; stroke-linecap: square"/>
   </g>
   <g id="line2d_20">
    <path d="M 73.832727 284.538642 
L 75.464157 283.715909 
L 77.095587 282.743086 
L 80.358447 278.988051 
L 81.989877 271.103589 
L 83.621307 273.321323 
L 85.252736 267.437166 
L 86.884166 269.637746 
L 88.515596 246.971696 
L 90.147026 254.420653 
L 91.778456 238.94659 
L 93.409886 240.946155 
L 95.041316 216.492148 
L 96.672746 201.447439 
L 98.304175 165.98401 
L 99.935605 231.41633 
L 101.567035 173.114532 
L 103.198465 191.750179 
L 104.829895 178.952444 
L 106.461325 142.134513 
L 108.092755 156.650362 
L 109.724185 157.858808 
L 111.355614 152.647836 
L 112.987044 138.936512 
L 114.618474 141.148261 
L 116.249904 111.194237 
L 117.881334 130.000847 
L 119.512764 111.497432 
L 121.144194 127.104283 
L 122.775624 125.142336 
L 124.407053 137.710222 
L 126.038483 120.690412 
L 127.669913 115.689175 
L 129.301343 125.009786 
L 130.932773 112.438924 
L 132.564203 121.670997 
L 134.195633 109.030995 
L 135.827063 110.586094 
L 137.458492 123.896694 
L 139.089922 120.909207 
L 140.721352 107.276087 
L 142.352782 105.063669 
L 143.984212 117.142686 
L 145.615642 118.595853 
L 147.247072 118.877705 
L 148.878502 115.506137 
L 150.509931 127.461798 
L 152.141361 115.859875 
L 153.772791 117.784629 
L 155.404221 107.724554 
L 157.035651 105.973001 
L 158.667081 99.109055 
L 160.298511 115.262121 
L 161.929941 115.923657 
L 163.56137 99.602003 
L 165.1928 114.372835 
L 166.82423 110.036761 
L 168.45566 106.338619 
L 170.08709 114.498429 
L 171.71852 114.512307 
L 173.34995 115.348216 
L 174.98138 113.373222 
L 176.61281 122.379929 
L 178.244239 128.527054 
L 179.875669 102.604698 
L 181.507099 102.024591 
L 183.138529 124.691297 
L 184.769959 119.759056 
L 186.401389 106.869375 
L 188.032819 128.278185 
L 189.664249 118.687652 
L 191.295678 99.587839 
L 192.927108 99.960855 
L 194.558538 97.721362 
L 196.189968 114.400837 
L 197.821398 87.317498 
L 199.452828 86.069352 
L 201.084258 81.728375 
L 202.715688 80.112534 
L 204.347117 81.821111 
L 205.978547 79.822507 
L 207.609977 79.235106 
L 209.241407 78.784438 
L 210.872837 76.667047 
L 212.504267 78.117869 
L 214.135697 77.862866 
L 215.767127 76.758364 
L 217.398556 73.591513 
L 219.029986 73.376162 
L 220.661416 84.791506 
L 222.292846 80.394185 
L 223.924276 72.880708 
L 225.555706 78.979534 
L 227.187136 71.370086 
L 228.818566 72.397622 
L 230.449995 72.37007 
L 232.081425 71.846114 
L 233.712855 74.589002 
L 235.344285 73.377839 
L 236.975715 71.510119 
L 238.607145 69.991473 
L 241.870005 69.024457 
L 243.501434 68.040365 
L 245.132864 71.474381 
L 246.764294 70.000936 
L 248.395724 76.596183 
L 250.027154 68.25006 
L 251.658584 69.337011 
L 253.290014 67.856425 
L 254.921444 67.66286 
L 256.552873 69.39966 
L 258.184303 68.709953 
L 259.815733 66.034932 
L 261.447163 67.536997 
L 263.078593 66.632196 
L 264.710023 66.735937 
L 266.341453 69.772271 
L 267.972883 66.470955 
L 269.604312 67.924867 
L 271.235742 65.005979 
L 272.867172 67.27376 
L 276.130032 64.310686 
L 277.761462 63.44829 
L 279.392892 63.736525 
L 281.024322 65.794277 
L 282.655751 67.291081 
L 284.287181 67.171805 
L 285.918611 64.593224 
L 287.550041 64.067718 
L 289.181471 63.061008 
L 290.812901 64.853424 
L 292.444331 65.104268 
L 294.075761 61.542925 
L 295.70719 65.189935 
L 297.33862 64.003547 
L 298.97005 61.749028 
L 300.60148 61.665062 
L 303.86434 63.499776 
L 305.49577 62.709682 
L 307.1272 63.038252 
L 308.75863 64.759354 
L 310.390059 65.21751 
L 312.021489 62.607297 
L 313.652919 63.01882 
L 315.284349 63.758198 
L 316.915779 61.41088 
L 318.547209 61.681946 
L 320.178639 60.637131 
L 321.810069 62.345836 
L 323.441498 62.578069 
L 325.072928 63.75878 
L 326.704358 62.552207 
L 328.335788 62.306393 
L 329.967218 59.504754 
L 331.598648 62.57219 
L 333.230078 61.114525 
L 334.861508 61.337481 
L 336.492937 60.507378 
L 338.124367 61.008009 
L 339.755797 59.014082 
L 341.387227 62.994079 
L 343.018657 58.211085 
L 344.650087 58.034298 
L 346.281517 57.96943 
L 347.912947 59.014839 
L 349.544376 57.597786 
L 351.175806 58.829624 
L 352.807236 57.528149 
L 354.438666 59.6098 
L 356.070096 58.83018 
L 357.701526 57.912225 
L 359.332956 60.18146 
L 360.964386 58.118742 
L 362.595815 57.62006 
L 364.227245 56.106231 
L 365.858675 56.332087 
L 367.490105 58.753939 
L 369.121535 55.66196 
L 370.752965 59.213752 
L 372.384395 56.968152 
L 374.015825 56.533024 
L 375.647254 57.069491 
L 377.278684 56.33383 
L 378.910114 57.058896 
L 380.541544 57.457437 
L 382.172974 56.07247 
L 383.804404 56.248801 
L 385.435834 55.982675 
L 387.067264 60.485359 
L 388.698693 56.781364 
L 390.330123 56.668033 
L 391.961553 59.256073 
L 393.592983 56.319778 
L 395.224413 56.760751 
L 396.855843 58.595032 
L 398.487273 57.928011 
L 398.487273 57.928011 
" clip-path="url(#p9e83557149)" style="fill: none; stroke: #ff7f0e; stroke-width: 1.5; stroke-linecap: square"/>
   </g>
   <g id="line2d_21"/>
   <g id="line2d_22"/>
   <g id="patch_3">
    <path d="M 57.6 307.584 
L 57.6 41.472 
" style="fill: none; stroke: #000000; stroke-width: 0.8; stroke-linejoin: miter; stroke-linecap: square"/>
   </g>
   <g id="patch_4">
    <path d="M 414.72 307.584 
L 414.72 41.472 
" style="fill: none; stroke: #000000; stroke-width: 0.8; stroke-linejoin: miter; stroke-linecap: square"/>
   </g>
   <g id="patch_5">
    <path d="M 57.6 307.584 
L 414.72 307.584 
" style="fill: none; stroke: #000000; stroke-width: 0.8; stroke-linejoin: miter; stroke-linecap: square"/>
   </g>
   <g id="patch_6">
    <path d="M 57.6 41.472 
L 414.72 41.472 
" style="fill: none; stroke: #000000; stroke-width: 0.8; stroke-linejoin: miter; stroke-linecap: square"/>
   </g>
   <g id="legend_1">
    <g id="patch_7">
     <path d="M 250.22 302.584 
L 407.72 302.584 
Q 409.72 302.584 409.72 300.584 
L 409.72 257.42775 
Q 409.72 255.42775 407.72 255.42775 
L 250.22 255.42775 
Q 248.22 255.42775 248.22 257.42775 
L 248.22 300.584 
Q 248.22 302.584 250.22 302.584 
z
" style="fill: #ffffff; opacity: 0.8; stroke: #cccccc; stroke-linejoin: miter"/>
    </g>
    <g id="text_21">
     <!-- Algorithm -->
     <g transform="translate(304.483281 267.026187) scale(0.1 -0.1)">
      <defs>
       <path id="DejaVuSans-6c" d="M 603 4863 
L 1178 4863 
L 1178 0 
L 603 0 
L 603 4863 
z
" transform="scale(0.015625)"/>
       <path id="DejaVuSans-68" d="M 3513 2113 
L 3513 0 
L 2938 0 
L 2938 2094 
Q 2938 2591 2744 2837 
Q 2550 3084 2163 3084 
Q 1697 3084 1428 2787 
Q 1159 2491 1159 1978 
L 1159 0 
L 581 0 
L 581 4863 
L 1159 4863 
L 1159 2956 
Q 1366 3272 1645 3428 
Q 1925 3584 2291 3584 
Q 2894 3584 3203 3211 
Q 3513 2838 3513 2113 
z
" transform="scale(0.015625)"/>
      </defs>
      <use xlink:href="#DejaVuSans-41"/>
      <use xlink:href="#DejaVuSans-6c" x="68.408203"/>
      <use xlink:href="#DejaVuSans-67" x="96.191406"/>
      <use xlink:href="#DejaVuSans-6f" x="159.667969"/>
      <use xlink:href="#DejaVuSans-72" x="220.849609"/>
      <use xlink:href="#DejaVuSans-69" x="261.962891"/>
      <use xlink:href="#DejaVuSans-74" x="289.746094"/>
      <use xlink:href="#DejaVuSans-68" x="328.955078"/>
      <use xlink:href="#DejaVuSans-6d" x="392.333984"/>
     </g>
    </g>
    <g id="line2d_23">
     <path d="M 252.22 278.204312 
L 262.22 278.204312 
L 272.22 278.204312 
" style="fill: none; stroke: #1f77b4; stroke-width: 1.5; stroke-linecap: square"/>
    </g>
    <g id="text_22">
     <!-- FedAvg -->
     <g transform="translate(280.22 281.704312) scale(0.1 -0.1)">
      <defs>
       <path id="DejaVuSans-46" d="M 628 4666 
L 3309 4666 
L 3309 4134 
L 1259 4134 
L 1259 2759 
L 3109 2759 
L 3109 2228 
L 1259 2228 
L 1259 0 
L 628 0 
L 628 4666 
z
" transform="scale(0.015625)"/>
       <path id="DejaVuSans-65" d="M 3597 1894 
L 3597 1613 
L 953 1613 
Q 991 1019 1311 708 
Q 1631 397 2203 397 
Q 2534 397 2845 478 
Q 3156 559 3463 722 
L 3463 178 
Q 3153 47 2828 -22 
Q 2503 -91 2169 -91 
Q 1331 -91 842 396 
Q 353 884 353 1716 
Q 353 2575 817 3079 
Q 1281 3584 2069 3584 
Q 2775 3584 3186 3129 
Q 3597 2675 3597 1894 
z
M 3022 2063 
Q 3016 2534 2758 2815 
Q 2500 3097 2075 3097 
Q 1594 3097 1305 2825 
Q 1016 2553 972 2059 
L 3022 2063 
z
" transform="scale(0.015625)"/>
       <path id="DejaVuSans-76" d="M 191 3500 
L 800 3500 
L 1894 563 
L 2988 3500 
L 3597 3500 
L 2284 0 
L 1503 0 
L 191 3500 
z
" transform="scale(0.015625)"/>
      </defs>
      <use xlink:href="#DejaVuSans-46"/>
      <use xlink:href="#DejaVuSans-65" x="52.019531"/>
      <use xlink:href="#DejaVuSans-64" x="113.542969"/>
      <use xlink:href="#DejaVuSans-41" x="177.019531"/>
      <use xlink:href="#DejaVuSans-76" x="239.552734"/>
      <use xlink:href="#DejaVuSans-67" x="298.732422"/>
     </g>
    </g>
    <g id="line2d_24">
     <path d="M 252.22 292.984 
L 262.22 292.984 
L 272.22 292.984 
" style="fill: none; stroke: #ff7f0e; stroke-width: 1.5; stroke-linecap: square"/>
    </g>
    <g id="text_23">
     <!-- Fed-Shap-UCB, $\beta = $0.001 -->
     <g transform="translate(280.22 296.484) scale(0.1 -0.1)">
      <defs>
       <path id="DejaVuSans-2d" d="M 313 2009 
L 1997 2009 
L 1997 1497 
L 313 1497 
L 313 2009 
z
" transform="scale(0.015625)"/>
       <path id="DejaVuSans-53" d="M 3425 4513 
L 3425 3897 
Q 3066 4069 2747 4153 
Q 2428 4238 2131 4238 
Q 1616 4238 1336 4038 
Q 1056 3838 1056 3469 
Q 1056 3159 1242 3001 
Q 1428 2844 1947 2747 
L 2328 2669 
Q 3034 2534 3370 2195 
Q 3706 1856 3706 1288 
Q 3706 609 3251 259 
Q 2797 -91 1919 -91 
Q 1588 -91 1214 -16 
Q 841 59 441 206 
L 441 856 
Q 825 641 1194 531 
Q 1563 422 1919 422 
Q 2459 422 2753 634 
Q 3047 847 3047 1241 
Q 3047 1584 2836 1778 
Q 2625 1972 2144 2069 
L 1759 2144 
Q 1053 2284 737 2584 
Q 422 2884 422 3419 
Q 422 4038 858 4394 
Q 1294 4750 2059 4750 
Q 2388 4750 2728 4690 
Q 3069 4631 3425 4513 
z
" transform="scale(0.015625)"/>
       <path id="DejaVuSans-70" d="M 1159 525 
L 1159 -1331 
L 581 -1331 
L 581 3500 
L 1159 3500 
L 1159 2969 
Q 1341 3281 1617 3432 
Q 1894 3584 2278 3584 
Q 2916 3584 3314 3078 
Q 3713 2572 3713 1747 
Q 3713 922 3314 415 
Q 2916 -91 2278 -91 
Q 1894 -91 1617 61 
Q 1341 213 1159 525 
z
M 3116 1747 
Q 3116 2381 2855 2742 
Q 2594 3103 2138 3103 
Q 1681 3103 1420 2742 
Q 1159 2381 1159 1747 
Q 1159 1113 1420 752 
Q 1681 391 2138 391 
Q 2594 391 2855 752 
Q 3116 1113 3116 1747 
z
" transform="scale(0.015625)"/>
       <path id="DejaVuSans-55" d="M 556 4666 
L 1191 4666 
L 1191 1831 
Q 1191 1081 1462 751 
Q 1734 422 2344 422 
Q 2950 422 3222 751 
Q 3494 1081 3494 1831 
L 3494 4666 
L 4128 4666 
L 4128 1753 
Q 4128 841 3676 375 
Q 3225 -91 2344 -91 
Q 1459 -91 1007 375 
Q 556 841 556 1753 
L 556 4666 
z
" transform="scale(0.015625)"/>
       <path id="DejaVuSans-42" d="M 1259 2228 
L 1259 519 
L 2272 519 
Q 2781 519 3026 730 
Q 3272 941 3272 1375 
Q 3272 1813 3026 2020 
Q 2781 2228 2272 2228 
L 1259 2228 
z
M 1259 4147 
L 1259 2741 
L 2194 2741 
Q 2656 2741 2882 2914 
Q 3109 3088 3109 3444 
Q 3109 3797 2882 3972 
Q 2656 4147 2194 4147 
L 1259 4147 
z
M 628 4666 
L 2241 4666 
Q 2963 4666 3353 4366 
Q 3744 4066 3744 3513 
Q 3744 3084 3544 2831 
Q 3344 2578 2956 2516 
Q 3422 2416 3680 2098 
Q 3938 1781 3938 1306 
Q 3938 681 3513 340 
Q 3088 0 2303 0 
L 628 0 
L 628 4666 
z
" transform="scale(0.015625)"/>
       <path id="DejaVuSans-2c" d="M 750 794 
L 1409 794 
L 1409 256 
L 897 -744 
L 494 -744 
L 750 256 
L 750 794 
z
" transform="scale(0.015625)"/>
       <path id="DejaVuSans-3b2" d="M 1178 216 
L 1178 -1331 
L 600 -1331 
L 600 3478 
Q 600 4903 1931 4903 
Q 3288 4903 3288 3700 
Q 3288 2844 2750 2531 
Q 3625 2250 3625 1416 
Q 3625 -66 2119 -66 
Q 1456 -66 1178 216 
z
M 1178 966 
Q 1525 425 2141 425 
Q 3041 425 3041 1406 
Q 3041 2288 1591 2219 
L 1591 2750 
Q 2725 2750 2725 3750 
Q 2725 4434 1994 4434 
Q 1178 4434 1178 3459 
L 1178 966 
z
" transform="scale(0.015625)"/>
       <path id="DejaVuSans-3d" d="M 678 2906 
L 4684 2906 
L 4684 2381 
L 678 2381 
L 678 2906 
z
M 678 1631 
L 4684 1631 
L 4684 1100 
L 678 1100 
L 678 1631 
z
" transform="scale(0.015625)"/>
      </defs>
      <use xlink:href="#DejaVuSans-46" transform="translate(0 0.390625)"/>
      <use xlink:href="#DejaVuSans-65" transform="translate(57.519531 0.390625)"/>
      <use xlink:href="#DejaVuSans-64" transform="translate(119.042969 0.390625)"/>
      <use xlink:href="#DejaVuSans-2d" transform="translate(182.519531 0.390625)"/>
      <use xlink:href="#DejaVuSans-53" transform="translate(218.603516 0.390625)"/>
      <use xlink:href="#DejaVuSans-68" transform="translate(282.080078 0.390625)"/>
      <use xlink:href="#DejaVuSans-61" transform="translate(345.458984 0.390625)"/>
      <use xlink:href="#DejaVuSans-70" transform="translate(406.738281 0.390625)"/>
      <use xlink:href="#DejaVuSans-2d" transform="translate(470.214844 0.390625)"/>
      <use xlink:href="#DejaVuSans-55" transform="translate(506.298828 0.390625)"/>
      <use xlink:href="#DejaVuSans-43" transform="translate(579.492188 0.390625)"/>
      <use xlink:href="#DejaVuSans-42" transform="translate(649.316406 0.390625)"/>
      <use xlink:href="#DejaVuSans-2c" transform="translate(717.919922 0.390625)"/>
      <use xlink:href="#DejaVuSans-20" transform="translate(749.707031 0.390625)"/>
      <use xlink:href="#DejaVuSans-3b2" transform="translate(781.494141 0.390625)"/>
      <use xlink:href="#DejaVuSans-3d" transform="translate(864.794922 0.390625)"/>
      <use xlink:href="#DejaVuSans-30" transform="translate(968.066406 0.390625)"/>
      <use xlink:href="#DejaVuSans-2e" transform="translate(1031.689453 0.390625)"/>
      <use xlink:href="#DejaVuSans-30" transform="translate(1063.476562 0.390625)"/>
      <use xlink:href="#DejaVuSans-30" transform="translate(1127.099609 0.390625)"/>
      <use xlink:href="#DejaVuSans-31" transform="translate(1190.722656 0.390625)"/>
     </g>
    </g>
   </g>
  </g>
 </g>
 <defs>
  <clipPath id="p9e83557149">
   <rect x="57.6" y="41.472" width="357.12" height="266.112"/>
  </clipPath>
 </defs>
</svg>
